<?xml version="1.0" encoding="UTF-8"?>
<svg xmlns="http://www.w3.org/2000/svg" xmlns:xlink="http://www.w3.org/1999/xlink" width="198px" height="94px" viewBox="0 0 198 94" version="1.1">
<g id="surface1">
<path style=" stroke:none;fill-rule:nonzero;fill:rgb(0%,0%,0%);fill-opacity:1;" d="M 12.777344 94 C 12.078125 94 11.378906 93.871094 10.84375 93.621094 L 0.800781 88.851562 C -0.230469 88.363281 -0.269531 87.574219 0.707031 87.0625 L 15.285156 79.433594 L 5.441406 74.761719 C 2.859375 73.535156 2.859375 71.539062 5.441406 70.3125 L 13.539062 66.46875 C 13.816406 66.335938 14.113281 66.21875 14.429688 66.113281 L 9.621094 63.832031 C 7.039062 62.605469 7.039062 60.609375 9.621094 59.382812 L 21.273438 53.847656 C 22.527344 53.253906 24.191406 52.925781 25.960938 52.925781 C 27.730469 52.925781 29.398438 53.253906 30.648438 53.847656 L 49.820312 62.949219 L 132.59375 23.652344 L 113.421875 14.550781 C 112.171875 13.957031 111.480469 13.167969 111.480469 12.328125 C 111.480469 11.484375 112.171875 10.695312 113.421875 10.101562 L 125.078125 4.570312 C 126.328125 3.976562 127.992188 3.648438 129.761719 3.648438 C 131.53125 3.648438 133.195312 3.976562 134.449219 4.570312 L 139.257812 6.851562 C 139.476562 6.703125 139.726562 6.5625 140.007812 6.429688 L 148.101562 2.585938 C 149.355469 1.992188 151.015625 1.664062 152.789062 1.664062 C 154.558594 1.664062 156.222656 1.992188 157.472656 2.585938 L 167.3125 7.257812 L 183.382812 0.335938 C 184.464844 -0.128906 186.125 -0.109375 187.152344 0.382812 L 197.195312 5.148438 C 198.226562 5.640625 198.265625 6.425781 197.289062 6.9375 L 182.714844 14.566406 L 192.554688 19.238281 C 195.136719 20.464844 195.136719 22.460938 192.554688 23.6875 L 184.460938 27.53125 C 184.179688 27.664062 183.882812 27.78125 183.566406 27.886719 L 188.375 30.171875 C 190.957031 31.398438 190.957031 33.394531 188.375 34.621094 L 176.722656 40.152344 C 175.46875 40.746094 173.804688 41.074219 172.035156 41.074219 C 170.265625 41.074219 168.601562 40.746094 167.347656 40.152344 L 148.175781 31.050781 L 65.402344 70.347656 L 84.574219 79.449219 C 85.824219 80.042969 86.515625 80.832031 86.515625 81.675781 C 86.515625 82.515625 85.824219 83.304688 84.574219 83.898438 L 72.921875 89.429688 C 71.667969 90.027344 70.003906 90.351562 68.234375 90.351562 C 66.464844 90.351562 64.800781 90.027344 63.546875 89.433594 L 58.742188 87.148438 C 58.519531 87.296875 58.269531 87.441406 57.992188 87.574219 L 49.894531 91.414062 C 48.644531 92.011719 46.980469 92.335938 45.210938 92.335938 C 43.4375 92.335938 41.773438 92.011719 40.523438 91.414062 L 30.683594 86.746094 L 14.613281 93.664062 C 14.09375 93.886719 13.433594 94 12.777344 94 Z M 6.503906 87.890625 L 12.871094 90.910156 L 26.8125 84.90625 L 19.152344 81.269531 Z M 18.226562 68.140625 C 18.046875 68.140625 17.699219 68.164062 17.402344 68.304688 L 9.308594 72.144531 C 8.855469 72.359375 8.855469 72.710938 9.308594 72.925781 L 44.390625 89.582031 C 44.6875 89.722656 45.03125 89.742188 45.210938 89.742188 C 45.390625 89.742188 45.734375 89.722656 46.035156 89.582031 L 54.128906 85.738281 C 54.578125 85.523438 54.582031 85.175781 54.132812 84.960938 L 19.046875 68.300781 C 18.75 68.164062 18.40625 68.140625 18.226562 68.140625 Z M 46.027344 77.441406 L 67.414062 87.597656 C 67.710938 87.738281 68.058594 87.757812 68.234375 87.757812 C 68.417969 87.757812 68.761719 87.738281 69.058594 87.597656 L 80.710938 82.0625 C 81.007812 81.921875 81.050781 81.757812 81.050781 81.675781 C 81.050781 81.589844 81.007812 81.425781 80.710938 81.285156 L 26.785156 55.683594 C 26.488281 55.542969 26.140625 55.519531 25.964844 55.519531 C 25.78125 55.519531 25.4375 55.542969 25.140625 55.683594 L 13.488281 61.214844 C 13.035156 61.429688 13.035156 61.78125 13.488281 61.996094 Z M 53.683594 64.785156 L 61.539062 68.511719 L 144.316406 29.214844 L 136.460938 25.488281 Z M 129.765625 6.242188 C 129.582031 6.242188 129.238281 6.261719 128.941406 6.402344 L 117.289062 11.9375 C 116.992188 12.078125 116.949219 12.242188 116.949219 12.324219 C 116.949219 12.410156 116.992188 12.574219 117.289062 12.714844 L 171.214844 38.316406 C 171.511719 38.457031 171.859375 38.480469 172.035156 38.480469 C 172.21875 38.480469 172.5625 38.457031 172.859375 38.316406 L 184.511719 32.785156 C 184.964844 32.570312 184.964844 32.21875 184.511719 32.003906 L 130.585938 6.402344 C 130.289062 6.261719 129.941406 6.242188 129.765625 6.242188 Z M 155.835938 14.722656 L 178.953125 25.695312 C 179.25 25.835938 179.59375 25.859375 179.773438 25.859375 C 179.953125 25.859375 180.300781 25.835938 180.597656 25.695312 L 188.691406 21.855469 C 189.144531 21.636719 189.144531 21.289062 188.691406 21.074219 L 153.609375 4.417969 C 153.3125 4.277344 152.96875 4.257812 152.789062 4.257812 C 152.609375 4.257812 152.265625 4.277344 151.964844 4.417969 L 143.871094 8.261719 C 143.421875 8.476562 143.417969 8.824219 143.867188 9.039062 Z M 171.1875 9.09375 L 178.847656 12.730469 L 191.496094 6.109375 L 185.128906 3.089844 Z M 171.1875 9.09375 "/>
</g>
</svg>
